HIERARCHY
ROOT Hips
{
	OFFSET 0.000000 0.000000 0.000000
	CHANNELS 6 Xposition Yposition Zposition Xrotation Yrotation Zrotation
	JOINT LeftUpLeg_virtual
	{
		OFFSET 0.000000 0.000000 0.000000
		CHANNELS 3 Xrotation Yrotation Zrotation
		JOINT LeftUpLeg
		{
			OFFSET 10.205400 -3.823500 0.155100
			CHANNELS 3 Xrotation Yrotation Zrotation
			JOINT LeftLeg
			{
				OFFSET 0.708757 -12.982077 0.567790
				CHANNELS 3 Xrotation Yrotation Zrotation
				JOINT LeftFoot
				{
					OFFSET -0.708756 -10.717838 -2.184338
					CHANNELS 3 Xrotation Yrotation Zrotation
					JOINT LeftToeBase
					{
						OFFSET 0.108149 -7.191104 7.560241
						CHANNELS 3 Xrotation Yrotation Zrotation
						JOINT LeftToe_End
						{
							OFFSET 0.070230 0.081724 4.490308
							CHANNELS 3 Xrotation Yrotation Zrotation
							End Site
							{
								OFFSET 0 0 0
							}
						}
					}
				}
			}
		}
	}
	JOINT RightUpLeg_virtual
	{
		OFFSET 0.000000 0.000000 0.000000
		CHANNELS 3 Xrotation Yrotation Zrotation
		JOINT RightUpLeg
		{
			OFFSET -10.205400 -3.823500 0.005500
			CHANNELS 3 Xrotation Yrotation Zrotation
			JOINT RightLeg
			{
				OFFSET -0.708756 -12.982134 0.610632
				CHANNELS 3 Xrotation Yrotation Zrotation
				JOINT RightFoot
				{
					OFFSET 0.708754 -10.717769 -1.945823
					CHANNELS 3 Xrotation Yrotation Zrotation
					JOINT RightToeBase
					{
						OFFSET -0.108140 -7.191069 7.372968
						CHANNELS 3 Xrotation Yrotation Zrotation
						JOINT RightToe_End
						{
							OFFSET -0.070227 0.081735 4.479403
							CHANNELS 3 Xrotation Yrotation Zrotation
							End Site
							{
								OFFSET 0 0 0
							}
						}
					}
				}
			}
		}
	}
	JOINT Spine_virtual
	{
		OFFSET 0.000000 0.000000 0.000000
		CHANNELS 3 Xrotation Yrotation Zrotation
		JOINT Spine
		{
			OFFSET 0.000000 6.876099 0.125700
			CHANNELS 3 Xrotation Yrotation Zrotation
			JOINT Spine1
			{
				OFFSET 0.000000 5.730043 0.104720
				CHANNELS 3 Xrotation Yrotation Zrotation
				JOINT Spine1_split
				{
					OFFSET 0.000000 5.730043 0.104720
					CHANNELS 3 Xrotation Yrotation Zrotation
					JOINT Spine2
					{
						OFFSET 0.000000 5.730043 0.104720
						CHANNELS 3 Xrotation Yrotation Zrotation
						JOINT Neck_virtual
						{
							OFFSET 0.000000 0.000000 0.000000
							CHANNELS 3 Xrotation Yrotation Zrotation
							JOINT Neck
							{
								OFFSET 0.000000 10.314075 0.188496
								CHANNELS 3 Xrotation Yrotation Zrotation
								JOINT Head
								{
									OFFSET 0.000000 7.643700 -2.377400
									CHANNELS 3 Xrotation Yrotation Zrotation
									JOINT HeadTop_End
									{
										OFFSET 0.000000 43.788605 -13.619600
										CHANNELS 3 Xrotation Yrotation Zrotation
										End Site
										{
											OFFSET 0 0 0
										}
									}
								}
							}
						}
						JOINT LeftShoulder_virtual
						{
							OFFSET 0.000000 0.000000 0.000000
							CHANNELS 3 Xrotation Yrotation Zrotation
							JOINT LeftShoulder
							{
								OFFSET 2.196100 4.412489 0.087492
								CHANNELS 3 Xrotation Yrotation Zrotation
								JOINT LeftShoulder_split
								{
									OFFSET 2.196100 4.412489 0.087492
									CHANNELS 3 Xrotation Yrotation Zrotation
									JOINT LeftArm
									{
										OFFSET 8.771219 -2.981674 -0.026999
										CHANNELS 3 Xrotation Yrotation Zrotation
										JOINT LeftForeArm
										{
											OFFSET 8.512804 0.000000 -0.000000
											CHANNELS 3 Xrotation Yrotation Zrotation
											JOINT LeftHand
											{
												OFFSET 18.484802 0.000000 -0.000000
												CHANNELS 3 Xrotation Yrotation Zrotation
												End Site
												{
													OFFSET 0 0 0
												}
											}
										}
									}
								}
							}
						}
						JOINT RightShoulder_virtual
						{
							OFFSET 0.000000 0.000000 0.000000
							CHANNELS 3 Xrotation Yrotation Zrotation
							JOINT RightShoulder
							{
								OFFSET -2.196100 4.412496 0.070690
								CHANNELS 3 Xrotation Yrotation Zrotation
								JOINT RightShoulder_split
								{
									OFFSET -2.196100 4.412496 0.070690
									CHANNELS 3 Xrotation Yrotation Zrotation
									JOINT RightArm
									{
										OFFSET -8.771282 -2.981682 -0.094208
										CHANNELS 3 Xrotation Yrotation Zrotation
										JOINT RightForeArm
										{
											OFFSET -8.494598 0.000000 0.000000
											CHANNELS 3 Xrotation Yrotation Zrotation
											JOINT RightHand
											{
												OFFSET -18.483803 0.000000 0.000001
												CHANNELS 3 Xrotation Yrotation Zrotation
												End Site
												{
													OFFSET 0 0 0
												}
											}
										}
									}
								}
							}
						}
					}
				}
			}
		}
	}
}
MOTION
Frames: 6
Frame Time: 0.03333333
3.733425 29.606873 -4.671238 0.000000 0.000000 0.000000 42.290431 -79.808807 48.714596 2.302817 32.187949 9.429440 28.943210 -13.086678 -2.012532 -29.664546 25.859127 -22.703093 -2.558459 -4.561794 -5.688750 0.000000 0.000000 0.000000 46.061939 -79.324581 51.567433 -47.880586 24.767794 -10.302169 43.190746 0.405551 2.768734 -12.987653 6.165204 31.471541 6.489392 9.369167 -19.717598 0.000000 0.000000 0.000000 32.769827 -74.969693 38.532215 25.346354 -8.498820 0.636261 18.935132 -0.630147 0.847965 0.112421 0.712496 -0.146170 0.000000 0.000000 0.000000 18.255547 1.235911 0.426629 -2.089873 -0.433641 6.386717 -23.229496 -45.217789 -0.508531 0.000000 0.000000 0.000000 20.446361 -1.666544 0.880616 -0.181988 4.901912 16.375134 -1.934138 -4.457243 0.028206 7.266508 -0.995790 -67.462953 44.648998 -66.807023 38.023916 0.000000 0.000000 0.000000 20.563680 -0.279561 1.822845 7.341999 12.926906 6.033781 5.286679 0.047695 9.039894 -52.283957 32.759483 62.153758 -135.129214 73.775824 125.701121 0.000000 0.000000 0.000000 
3.821451 29.547386 -4.744373 0.000000 0.000000 0.000000 36.178112 -79.009019 42.489603 0.566797 32.087344 11.100891 29.627694 -14.505464 -1.644520 -29.074220 22.632646 -22.128927 -3.826891 -4.530595 -6.649748 0.000000 0.000000 0.000000 38.733613 -78.552407 44.272040 -46.651312 24.368384 -13.099435 45.995413 0.217077 2.432993 -13.412003 3.588543 32.445673 6.577189 8.964248 -18.868724 0.000000 0.000000 0.000000 30.066599 -74.387071 35.511530 24.168621 -7.413772 1.431325 18.676749 -1.742456 0.596904 0.067769 0.663721 -0.123391 0.000000 0.000000 0.000000 18.368897 -0.002052 -0.019867 -0.200850 0.047187 4.666525 -21.894327 -37.602865 1.171242 0.000000 0.000000 0.000000 20.117258 -2.936265 0.717570 -0.439359 5.623155 16.052181 -0.448090 -5.990773 0.836211 1.363945 5.738903 -63.455381 48.669537 -71.263243 41.095869 0.000000 0.000000 0.000000 20.060781 -1.720069 1.267486 7.512451 13.368938 6.150323 3.751501 0.526341 8.090720 -46.416483 28.005953 57.393847 -146.715469 74.818596 138.414917 0.000000 0.000000 0.000000 
3.890187 29.588684 -4.943592 0.000000 0.000000 0.000000 28.573164 -77.509219 34.611246 -2.138583 31.071446 13.518449 30.379339 -16.233036 -0.950261 -26.873483 18.291976 -22.824926 -5.639426 -4.423365 -7.200911 0.000000 0.000000 0.000000 31.188495 -77.191458 36.550227 -44.797671 23.570592 -16.271322 47.951623 0.614207 1.936976 -13.428219 0.888722 34.851870 7.331967 8.931836 -18.730139 0.000000 0.000000 0.000000 26.503803 -73.156599 31.355961 22.389205 -5.636828 3.009256 18.265341 -3.025549 0.141094 -0.007294 0.581193 -0.145345 0.000000 0.000000 0.000000 18.308682 -1.491163 -0.532952 1.916451 1.298371 2.108595 -21.271484 -28.609516 1.256519 0.000000 0.000000 0.000000 19.671160 -4.379072 0.287204 -0.529070 6.104697 15.378321 1.412363 -6.508227 1.402688 -4.535610 8.621255 -59.536908 61.597077 -77.012104 53.189630 0.000000 0.000000 0.000000 19.585571 -3.334235 0.477848 7.733175 14.247150 6.054566 1.097423 0.330245 7.585015 -41.861143 24.835307 54.918645 -156.726736 75.244000 149.614365 0.000000 0.000000 0.000000 
3.937453 29.706007 -5.124840 0.000000 0.000000 0.000000 21.745362 -75.236870 27.358685 -5.534463 29.259745 16.197339 31.167437 -17.467632 -0.132928 -23.754208 13.376061 -23.729114 -7.523654 -4.310199 -7.174073 0.000000 0.000000 0.000000 25.045108 -75.279866 30.037065 -41.861260 22.067074 -19.175567 48.509779 1.262420 1.197900 -13.933933 -2.160326 37.707883 8.607856 9.254540 -18.961585 0.000000 0.000000 0.000000 23.049930 -71.471202 27.097338 20.055693 -3.311065 4.886519 17.664664 -4.199749 -0.538275 -0.144609 0.393508 -0.189255 0.000000 0.000000 0.000000 17.978678 -2.932601 -1.172224 4.363414 2.953458 -0.660599 -20.761651 -19.127964 0.585501 0.000000 0.000000 0.000000 19.115309 -5.709511 -0.447062 -0.373492 6.061120 14.177552 2.464276 -5.950413 1.407328 -8.970274 7.211036 -56.499294 94.896920 -81.153555 85.833007 0.000000 0.000000 0.000000 19.211000 -4.836783 -0.493678 7.828855 15.286319 5.699404 -2.189525 -0.650025 7.834277 -38.298305 22.991417 53.841630 -162.522084 75.034532 156.518211 0.000000 0.000000 0.000000 
3.935205 29.842438 -5.186949 0.000000 0.000000 0.000000 16.659284 -72.248163 21.747076 -9.328904 26.791050 18.590043 32.183875 -17.665115 0.741762 -20.466839 8.770866 -23.995332 -8.490423 -4.221379 -6.769039 0.000000 0.000000 0.000000 20.536762 -72.892742 25.069615 -38.010508 19.624619 -21.435929 47.911171 1.761330 0.267498 -14.967342 -5.778086 40.060900 9.583926 9.937243 -19.190946 0.000000 0.000000 0.000000 19.421802 -69.276730 22.793403 17.352751 -0.691593 6.506265 16.921730 -4.967732 -1.327081 -0.192734 0.210437 -0.135686 0.000000 0.000000 0.000000 17.266715 -3.969876 -1.888381 6.951264 4.854583 -2.890459 -20.144007 -9.867935 -0.265240 0.000000 0.000000 0.000000 18.364239 -6.640337 -1.396612 0.025883 5.285564 12.419683 2.521304 -5.090644 0.833169 -10.954590 3.090517 -54.765758 136.299116 -80.640123 126.936935 0.000000 0.000000 0.000000 18.910844 -5.862254 -1.472321 7.711512 15.966527 4.838226 -5.561380 -1.665512 9.307716 -35.539462 22.401832 53.035541 -163.255468 74.071175 158.210185 0.000000 0.000000 0.000000 
3.856975 29.926243 -5.135784 0.000000 0.000000 0.000000 13.409127 -68.743921 17.937747 -13.021009 24.044158 20.158897 33.278908 -16.587365 1.528886 -18.105295 5.259758 -22.886051 -8.000939 -4.155284 -6.229642 0.000000 0.000000 0.000000 17.151394 -70.282401 21.348656 -33.731002 16.283501 -23.001750 46.954771 2.106716 -0.827469 -16.376208 -9.819358 41.633848 9.849421 10.892028 -19.218974 0.000000 0.000000 0.000000 15.936121 -66.516501 18.932654 14.499436 2.042682 7.394089 16.015175 -5.171210 -1.996933 -0.163384 -0.109717 -0.064420 0.000000 0.000000 0.000000 16.173984 -4.372982 -2.449907 9.231715 6.555713 -4.026590 -19.282080 -2.049356 -0.937018 0.000000 0.000000 0.000000 17.263115 -6.945424 -2.356769 0.559058 3.913841 10.210844 1.564365 -4.127403 -0.144695 -10.881382 -2.102336 -53.957828 156.757568 -78.109893 147.485204 0.000000 0.000000 0.000000 18.437368 -6.190542 -2.233843 7.332210 16.049929 3.400831 -8.197339 -2.427840 11.244283 -33.900455 22.826699 52.360760 -159.830279 72.567318 155.502657 0.000000 0.000000 0.000000 
